<svg width="900" height="620" viewBox="0 0 900 620" fill="none" xmlns="http://www.w3.org/2000/svg">
  <rect width="900" height="620" rx="46" fill="#061322"/>
  <circle cx="218" cy="148" r="150" fill="#46D9FF" fill-opacity=".14"/>
  <circle cx="732" cy="496" r="170" fill="#A6FF4D" fill-opacity=".12"/>
  <rect x="214" y="226" width="472" height="260" rx="38" fill="#0D263D" stroke="#C2E5FF" stroke-opacity=".2" stroke-width="4"/>
  <rect x="296" y="282" width="142" height="142" rx="28" fill="#0A1E31" stroke="#46D9FF" stroke-width="5"/>
  <rect x="480" y="282" width="124" height="142" rx="28" fill="#0A1E31" stroke="#A6FF4D" stroke-width="5"/>
  <circle cx="367" cy="353" r="34" fill="#46D9FF" fill-opacity=".9"/>
  <path d="M531 318c28 18 28 52 0 70M560 294c56 42 56 100 0 142" stroke="#A6FF4D" stroke-width="10" stroke-linecap="round"/>
  <path d="M214 356H112M686 356h102M450 226V124M450 486v76" stroke="#78E6FF" stroke-opacity=".48" stroke-width="7" stroke-linecap="round"/>
  <circle cx="112" cy="356" r="18" fill="#46D9FF"/>
  <circle cx="788" cy="356" r="18" fill="#A6FF4D"/>
  <circle cx="450" cy="124" r="18" fill="#46D9FF"/>
  <circle cx="450" cy="562" r="18" fill="#A6FF4D"/>
  <text x="68" y="94" fill="#F6FBFF" font-family="Sora, Segoe UI, sans-serif" font-size="54" font-weight="800">IoT Systems</text>
  <text x="70" y="142" fill="#91A8BA" font-family="Manrope, Segoe UI, sans-serif" font-size="26" font-weight="700">Arduino, Raspberry Pi, ESP32 and sensors</text>
</svg>
